<svg xmlns="http://www.w3.org/2000/svg" viewBox="0 0 317.92 116.61"><defs><style>.cls-1,.cls-3{fill:#f39556;}.cls-2{fill:#fff;stroke:#f39556;stroke-miterlimit:10;stroke-width:0.97px;}.cls-3{font-size:60.25px;font-family:MonotypeCorsiva, Monotype Corsiva;}</style></defs><g id="Layer_2" data-name="Layer 2"><g id="Layer_1-2" data-name="Layer 1"><circle class="cls-1" cx="58.31" cy="58.31" r="58.31"/><path class="cls-2" d="M43.3,42.09s23.63,3.25,34.65.59,11,6.84,1.9,9.69-24.77,4.23-23.44,5,6.42,27.34,6.34,31.9S35,100.21,32.29,92.61,27,41.18,43.3,42.09Z"/><circle class="cls-2" cx="46.03" cy="35.23" r="12.06"/><path class="cls-2" d="M78.18,47.37s-24.76,4.66-36,2.84S31.77,57.87,41.07,60s18.87,2.85,17.6,3.71-7,24.14-6.57,28.68,36.16,8.67,38.24.89S94.35,45.23,78.18,47.37Z"/><circle class="cls-2" cx="70.15" cy="35.23" r="12.06"/><path class="cls-2" d="M56.65,69.3A100.29,100.29,0,0,0,71,68.62c15.2-2.36,9.76-10.31,1.9-7.34-2.9,1.1-6.71.25-11.78.89-1.18.15-6.81.26-6.81.26"/><text class="cls-3" transform="translate(127.94 80.12)">HELLÄ</text></g></g></svg>