<svg xmlns="http://www.w3.org/2000/svg" viewBox="0 0 402.45 147.61"><defs><style>.cls-1,.cls-3{fill:#f39556;}.cls-2{fill:#fff;stroke:#f39556;stroke-miterlimit:10;stroke-width:1.23px;}.cls-3{font-size:76.27px;font-family:MonotypeCorsiva, Monotype Corsiva;}</style></defs><g id="Layer_2" data-name="Layer 2"><g id="Layer_1-2" data-name="Layer 1"><circle class="cls-1" cx="73.81" cy="73.81" r="73.81"/><path class="cls-2" d="M54.81,53.28s29.92,4.11,43.86.75,13.94,8.65,2.4,12.26S69.72,71.64,71.4,72.6s8.14,34.62,8,40.39-35.2,13.86-38.57,4.24S34.2,52.13,54.81,53.28Z"/><circle class="cls-2" cx="58.26" cy="44.6" r="15.27"/><path class="cls-2" d="M99,60s-31.35,5.89-45.51,3.59S40.21,73.25,52,76s23.88,3.6,22.28,4.69S65.41,111.22,66,117s45.78,11,48.4,1.13S119.43,57.25,99,60Z"/><circle class="cls-2" cx="88.79" cy="44.6" r="15.27"/><path class="cls-2" d="M71.71,87.73s10.92.27,18.2-.86c19.24-3,12.36-13.06,2.41-9.3-3.68,1.39-8.5.32-14.91,1.12-1.5.19-8.63.34-8.63.34"/><text class="cls-3" transform="translate(161.95 101.42)">HELLÄ</text></g></g></svg>